<?xml version="1.0" standalone="no"?>
<!DOCTYPE svg PUBLIC "-//W3C//DTD SVG 20010904//EN"
 "http://www.w3.org/TR/2001/REC-SVG-20010904/DTD/svg10.dtd">
<svg version="1.0" xmlns="http://www.w3.org/2000/svg"
 width="201.000000pt" height="201.000000pt" viewBox="0 0 201.000000 201.000000"
 preserveAspectRatio="xMidYMid meet">
<metadata>
Created by potrace 1.11, written by Peter Selinger 2001-2013
</metadata>
<g transform="translate(0.000000,201.000000) scale(0.100000,-0.100000)"
fill="#000000" stroke="none">
<path d="M670 1149 c-201 -325 -374 -606 -385 -625 -21 -35 -167 -271 -193
-311 l-14 -23 235 0 235 0 33 53 c18 28 98 160 179 292 341 558 484 791 496
810 12 19 7 31 -48 120 -65 107 -92 152 -136 227 -15 26 -29 48 -32 47 -3 0
-169 -266 -370 -590z"/>
<path d="M1340 1197 c-9 -12 -107 -175 -219 -362 -111 -187 -207 -347 -212
-355 -65 -107 -169 -283 -169 -286 0 -2 94 -4 209 -4 l209 0 149 237 c81 131
153 245 158 255 6 10 31 52 58 93 52 84 52 83 34 116 -15 30 -198 329 -200
329 -1 0 -9 -11 -17 -23z"/>
<path d="M1643 687 c-41 -62 -270 -413 -296 -455 l-27 -42 229 0 230 0 55 76
c31 42 56 82 56 88 0 17 -204 359 -215 363 -6 1 -20 -12 -32 -30z"/>
</g>
</svg>
