<?xml version="1.0" standalone="no"?>
<!DOCTYPE svg PUBLIC "-//W3C//DTD SVG 20010904//EN"
 "http://www.w3.org/TR/2001/REC-SVG-20010904/DTD/svg10.dtd">
<svg version="1.0" xmlns="http://www.w3.org/2000/svg"
 width="282.000000pt" height="282.000000pt" viewBox="0 0 282.000000 282.000000"
 preserveAspectRatio="xMidYMid meet">
<metadata>
Created by potrace 1.11, written by Peter Selinger 2001-2013
</metadata>
<g transform="translate(0.000000,282.000000) scale(0.100000,-0.100000)"
fill="#000000" stroke="none">
<path d="M1410 2286 c-85 -25 -140 -52 -220 -106 -63 -43 -163 -145 -205 -208
-20 -31 -33 -41 -44 -36 -83 37 -129 46 -196 39 -38 -4 -91 -15 -118 -25 -113
-43 -221 -163 -254 -282 -15 -54 -20 -60 -72 -89 -82 -47 -182 -151 -224 -234
-46 -92 -58 -140 -61 -238 -3 -127 9 -192 55 -286 73 -149 213 -265 369 -306
81 -22 1898 -22 1980 -1 86 23 169 73 242 147 167 169 206 415 99 628 -60 118
-195 234 -312 269 l-57 16 -9 68 -9 68 58 0 c66 0 62 -4 81 96 19 103 15 107
-113 106 l-100 0 -32 46 c-118 174 -284 295 -460 337 -101 24 -305 19 -398 -9z
m356 -96 c148 -33 300 -132 384 -250 l21 -29 -163 0 c-275 1 -245 6 -253 -43
-4 -24 -9 -52 -11 -63 -2 -11 -9 -47 -14 -80 -5 -33 -12 -71 -15 -85 -9 -44
-24 -134 -31 -175 -3 -22 -12 -71 -19 -110 -8 -38 -26 -140 -41 -225 -14 -85
-28 -164 -30 -175 -2 -11 -9 -47 -14 -80 -5 -33 -12 -69 -14 -80 -17 -91 -27
-166 -21 -175 4 -6 -11 -10 -42 -11 -88 -1 -618 -1 -633 1 -8 0 9 9 37 20 153
55 285 179 336 318 32 86 30 220 -3 285 -59 117 -203 181 -403 178 -43 -1 -82
1 -86 3 -4 3 4 69 19 148 l26 143 261 3 261 2 12 73 c6 39 13 77 15 84 2 6 -2
19 -9 29 -12 15 -29 17 -135 16 l-122 -2 18 31 c47 81 201 191 328 234 94 31
238 38 341 15z m-1177 -435 c-5 -28 -12 -63 -15 -80 -5 -30 -21 -123 -28 -160
-7 -37 -15 -90 -21 -125 -3 -19 -10 -57 -16 -83 -9 -37 -9 -54 1 -72 12 -22
16 -23 171 -23 196 -1 259 -12 308 -57 35 -32 36 -36 35 -98 -2 -121 -73 -209
-204 -251 -64 -21 -91 -24 -185 -21 -60 1 -134 6 -162 10 -67 10 -79 0 -88
-70 -3 -30 -10 -57 -14 -60 -12 -7 -112 69 -144 109 -129 165 -138 398 -23
572 42 63 101 111 186 154 36 18 66 33 67 34 2 2 7 26 13 55 14 73 41 131 85
180 21 23 39 40 41 39 1 -2 -2 -26 -7 -53z m1675 -80 c4 -19 9 -67 12 -107 3
-40 9 -76 12 -79 4 -3 38 -14 76 -23 94 -23 160 -59 220 -120 224 -226 128
-623 -173 -717 -66 -20 -191 -24 -558 -20 l-91 1 9 33 c5 19 11 47 13 63 2 16
16 97 30 179 33 185 46 258 46 266 0 3 113 6 250 6 138 0 253 2 255 5 3 3 12
40 20 82 23 120 36 114 -242 113 -128 0 -236 2 -239 6 -3 3 -1 29 5 59 6 29
13 69 16 88 12 77 26 156 30 178 5 22 8 22 154 22 l149 0 6 -35z"/>
</g>
</svg>
