<?xml version="1.0" encoding="UTF-8" standalone="no"?>
<!-- Created with Inkscape (http://www.inkscape.org/) -->

<svg
   xmlns:dc="http://purl.org/dc/elements/1.1/"
   xmlns:cc="http://creativecommons.org/ns#"
   xmlns:rdf="http://www.w3.org/1999/02/22-rdf-syntax-ns#"
   xmlns:svg="http://www.w3.org/2000/svg"
   xmlns="http://www.w3.org/2000/svg"
   xmlns:sodipodi="http://sodipodi.sourceforge.net/DTD/sodipodi-0.dtd"
   xmlns:inkscape="http://www.inkscape.org/namespaces/inkscape"
   width="715.84003"
   height="475.88"
   id="svg2"
   version="1.1"
   inkscape:version="0.48.4 r9939"
   sodipodi:docname="desenho.svg">
  <defs
     id="defs4">
    <inkscape:perspective
       sodipodi:type="inkscape:persp3d"
       inkscape:vp_x="-40 : 226.18109 : 1"
       inkscape:vp_y="0 : 1000 : 0"
       inkscape:vp_z="704.09448 : 226.18109 : 1"
       inkscape:persp3d-origin="332.04724 : 50.78739 : 1"
       id="perspective3546" />
  </defs>
  <sodipodi:namedview
     id="base"
     pagecolor="#ffffff"
     bordercolor="#666666"
     borderopacity="1.0"
     inkscape:pageopacity="0.0"
     inkscape:pageshadow="2"
     inkscape:zoom="0.35"
     inkscape:cx="623.35854"
     inkscape:cy="186.71166"
     inkscape:document-units="px"
     inkscape:current-layer="layer1"
     showgrid="false"
     inkscape:snap-smooth-nodes="false"
     inkscape:object-nodes="false"
     inkscape:snap-midpoints="true"
     inkscape:snap-bbox="true"
     inkscape:bbox-nodes="false"
     inkscape:window-width="1366"
     inkscape:window-height="713"
     inkscape:window-x="0"
     inkscape:window-y="30"
     inkscape:window-maximized="1"
     width="715.83px" />
  <metadata
     id="metadata7">
    <rdf:RDF>
      <cc:Work
         rdf:about="">
        <dc:format>image/svg+xml</dc:format>
        <dc:type
           rdf:resource="http://purl.org/dc/dcmitype/StillImage" />
      </cc:Work>
    </rdf:RDF>
  </metadata>
  <g
     inkscape:label="Camada 1"
     inkscape:groupmode="layer"
     id="layer1"
     transform="translate(0,-576.48181)">
    <rect
       style="fill:#ea4335;fill-opacity:1"
       id="rect3568"
       width="552.55341"
       height="474.59979"
       x="-0.28571272"
       y="576.79382"
       ry="48.147804" />
    <rect
       style="fill:#fbbc05;fill-opacity:1"
       id="rect3568-6"
       width="559.43164"
       height="474.59979"
       x="54.740353"
       y="577.02307"
       ry="48.147804" />
    <rect
       style="fill:#34a853;fill-opacity:1"
       id="rect3568-6-7-5"
       width="559.43164"
       height="474.59979"
       x="107.98565"
       y="577.50183"
       ry="48.147804" />
    <rect
       style="fill:#4285f4;fill-opacity:1"
       id="rect3568-6-7"
       width="559.43164"
       height="474.59979"
       x="156.11531"
       y="576.22595"
       ry="48.147804" />
    <path
       style="fill:#ffffff"
       d="m 252.55482,975.7278 c -34.45921,-8.41499 -65.22499,-37.35251 -77.00133,-72.42552 -5.99543,-17.85601 -5.60923,-51.65338 0.79777,-69.81308 8.76379,-24.83975 27.61623,-47.44806 49.31604,-59.14108 10.68666,-5.75856 12.30214,-7.49202 12.34378,-13.24528 0.0587,-8.1136 13.14954,-30.39596 23.74425,-40.41601 15.08658,-14.26824 28.1935,-19.75942 49.38075,-20.68816 14.09253,-0.61774 18.84666,-0.0513 27.12527,3.23238 5.52084,2.18974 10.39242,3.98138 10.82571,3.98138 0.43329,0 3.57007,-4.05825 6.97063,-9.01834 14.17766,-20.67967 33.92998,-37.53901 58.27931,-49.74361 35.11735,-17.60185 84.176,-18.0703 121.12045,-1.15654 23.22399,10.63229 47.24437,31.36704 60.90761,52.57632 l 7.15467,11.10615 19.22812,0.0166 c 23.77173,0.0205 24.52867,0.62972 21.65862,17.43133 -3.80165,22.25533 -2.54982,20.55725 -15.1547,20.55725 l -11.21821,0 0.96954,10.91694 c 1.32858,14.9595 1.13874,14.64289 10.4247,17.38543 14.94831,4.41491 30.85343,14.21986 43.40363,26.75687 52.92736,52.87189 32.29151,142.67903 -38.93418,169.44122 l -11.39157,4.28024 -179.41725,0.34013 c -149.97011,0.28426 -181.24172,-0.10547 -190.53361,-2.37455 z M 462.1207,956.40302 c -1.36602,-2.40842 4.00498,-36.49163 19.52203,-123.88332 l 21.40651,-120.56079 38.61753,-0.94929 38.61754,-0.94931 -8.56674,-10.51208 c -21.58565,-26.48744 -54.40962,-42.93734 -89.61442,-44.91077 -22.13403,-1.24074 -39.98654,2.50474 -61.54274,12.91171 -13.13502,6.34137 -19.5063,11.02089 -32.05658,23.5447 -8.61488,8.5967 -15.66341,16.59457 -15.66341,17.77304 0,1.47093 7.06993,2.14271 22.55068,2.14271 28.28184,0 28.07186,-0.18189 24.56453,21.27531 l -2.57401,15.74728 -49.80021,0.50619 c -27.39013,0.2784 -49.80389,1.13274 -49.80833,1.89858 -0.003,0.76584 -2.14035,13.30948 -4.74648,27.87477 -2.60613,14.56527 -4.73842,26.74003 -4.73842,27.05497 0,0.31495 6.62135,0.60245 14.71411,0.63889 60.56138,0.27263 91.02555,25.81523 84.09151,70.50629 -5.43414,35.02373 -31.20888,63.73979 -69.67451,77.62545 l -14.89165,5.37575 70.73876,0.10623 c 66.83947,0.10031 70.6349,-0.077 68.8543,-3.21629 z m 151.91791,1.40943 c 42.63147,-8.0849 70.23887,-43.74617 67.92943,-87.74644 -1.04184,-19.85024 -8.35532,-36.71599 -22.32703,-51.48905 -13.40071,-14.16925 -23.05977,-19.11088 -50.64164,-25.90854 l -7.81051,-1.92495 -0.99623,-17.55843 c -1.4922,-26.29989 1.11814,-24.38889 -32.47836,-23.77713 l -28.71706,0.5229 -5.13283,28.47893 c -2.82305,15.66342 -5.17924,30.82845 -5.23598,33.70006 l -0.1031,5.22113 45.62587,0 c 39.18035,0 45.78316,0.40993 46.73932,2.90162 0.61239,1.59589 0.054,9.71238 -1.24098,18.03665 l -2.35445,15.13506 -48.14591,0 -48.1459,0 -0.96214,4.27182 c -0.52917,2.34952 -4.44747,24.3495 -8.70733,48.88884 -4.25988,24.53933 -8.20764,46.53929 -8.77283,48.88881 l -1.02764,4.27184 51.20875,0 c 28.16483,0 55.74831,-0.86089 61.29662,-1.91312 z m -372.9568,-19.08113 c 0.7006,-5.28148 2.65237,-11.25785 4.33724,-13.28085 2.82824,-3.39585 4.08139,-3.51641 16.32587,-1.5708 7.29436,1.15902 23.10018,1.75016 35.12402,1.31365 18.81371,-0.68305 23.44965,-1.52185 33.2531,-6.01664 21.55398,-9.88239 33.17198,-26.50513 33.20684,-47.51158 0.0171,-10.26498 -0.50627,-11.6624 -6.47645,-17.29298 -9.30948,-8.77997 -18.6707,-10.7356 -56.57552,-11.81895 -21.80359,-0.62315 -34.24942,-1.72257 -35.36758,-3.12425 -1.07277,-1.34475 1.7462,-21.55053 7.45348,-53.42479 5.04831,-28.19414 9.21618,-52.36009 9.26191,-53.70211 0.15794,-4.63559 -6.72468,1.01942 -13.83604,11.36819 -4.42361,6.43742 -8.16656,15.18338 -10.39838,24.29726 l -3.487,14.23945 -12.94297,6.25956 c -15.98592,7.73121 -34.11966,25.49095 -41.32605,40.47371 -19.03429,39.57414 -7.62373,87.60773 26.81595,112.88372 4.80812,3.52877 9.78058,6.43713 11.04988,6.46301 1.35019,0.0275 2.83646,-3.93767 3.5817,-9.5556 z"
       id="path3528"
       inkscape:connector-curvature="0" />
  </g>
</svg>
